HIERARCHY
ROOT Hips
{
	OFFSET -178.139603 91.880257 -111.906502
	CHANNELS 6 Xposition Yposition Zposition Zrotation Yrotation Xrotation 
	JOINT LeftUpLeg
	{
		OFFSET 0.103462 1.857831 10.548496
		CHANNELS 3 Xrotation Yrotation Zrotation
		JOINT LeftLeg
		{
			OFFSET 43.500000 -0.000038 -0.000010
			CHANNELS 3 Xrotation Yrotation Zrotation
			JOINT LeftFoot
			{
				OFFSET 42.372192 0.000011 0.000010
				CHANNELS 3 Xrotation Yrotation Zrotation
				JOINT LeftToe
				{
					OFFSET 17.299999 0.000001 -0.000001
					CHANNELS 3 Xrotation Yrotation Zrotation
					End Site
					{
						OFFSET 0.000000 0.000000 0.000000
					}
				}
			}
		}
	}
	JOINT RightUpLeg
	{
		OFFSET 0.103456 1.857825 -10.548502
		CHANNELS 3 Xrotation Yrotation Zrotation
		JOINT RightLeg
		{
			OFFSET 43.500038 -0.000023 0.000011
			CHANNELS 3 Xrotation Yrotation Zrotation
			JOINT RightFoot
			{
				OFFSET 42.372261 -0.000008 0.000011
				CHANNELS 3 Xrotation Yrotation Zrotation
				JOINT RightToe
				{
					OFFSET 17.299994 -0.000004 0.000002
					CHANNELS 3 Xrotation Yrotation Zrotation
					End Site
					{
						OFFSET 0.000000 0.000000 0.000000
					}
				}
			}
		}
	}
	JOINT Spine
	{
		OFFSET 6.901965 -2.603729 -0.000002
		CHANNELS 3 Xrotation Yrotation Zrotation
		JOINT Spine1
		{
			OFFSET 12.588101 -0.000004 0.000003
			CHANNELS 3 Xrotation Yrotation Zrotation
			JOINT Spine2
			{
				OFFSET 12.343205 0.000006 0.000001
				CHANNELS 3 Xrotation Yrotation Zrotation
				JOINT Neck
				{
					OFFSET 25.832897 -0.000008 -0.000001
					CHANNELS 3 Xrotation Yrotation Zrotation
					JOINT Head
					{
						OFFSET 11.766601 0.000009 -0.000008
						CHANNELS 3 Xrotation Yrotation Zrotation
						End Site
						{
							OFFSET 0.000000 0.000000 0.000000
						}
					}
				}
				JOINT LeftShoulder
				{
					OFFSET 19.745893 -1.480370 6.000097
					CHANNELS 3 Xrotation Yrotation Zrotation
					JOINT LeftArm
					{
						OFFSET 11.284136 -0.000006 -0.000021
						CHANNELS 3 Xrotation Yrotation Zrotation
						JOINT LeftForeArm
						{
							OFFSET 33.000042 0.000005 0.000030
							CHANNELS 3 Xrotation Yrotation Zrotation
							JOINT LeftHand
							{
								OFFSET 25.200008 0.000013 0.000010
								CHANNELS 3 Xrotation Yrotation Zrotation
								End Site
								{
									OFFSET 0.000000 0.000000 0.000000
								}
							}
						}
					}
				}
				JOINT RightShoulder
				{
					OFFSET 19.746088 -1.480379 -6.000076
					CHANNELS 3 Xrotation Yrotation Zrotation
					JOINT RightArm
					{
						OFFSET 11.284133 -0.000016 -0.000013
						CHANNELS 3 Xrotation Yrotation Zrotation
						JOINT RightForeArm
						{
							OFFSET 33.000095 0.000019 0.000001
							CHANNELS 3 Xrotation Yrotation Zrotation
							JOINT RightHand
							{
								OFFSET 25.199785 0.000138 0.000422
								CHANNELS 3 Xrotation Yrotation Zrotation
								End Site
								{
									OFFSET 0.000000 0.000000 0.000000
								}
							}
						}
					}
				}
			}
		}
	}
}
MOTION
Frames: 15
Frame Time: 0.033333
-285.203003 81.787910 -561.617676 94.861615 -9.283666 175.768621 164.668580 -11.429703 177.378455 -48.994412 -4.736113 5.557946 90.386871 -5.820058 -12.922301 21.454553 0.003109 0.000017 151.357798 12.832198 -174.833185 -79.035787 0.008860 14.024057 81.517843 -7.204877 11.630718 21.454543 -0.003100 -0.000002 10.080082 -0.366970 -0.771363 10.152059 -0.664769 -1.571945 9.834067 -0.674386 -1.567911 3.672339 0.446247 3.102443 -22.084090 -8.839827 6.974660 -155.673890 -67.864985 -26.487100 20.688301 55.173964 21.102593 -109.812995 1.337600 3.135642 -19.865622 -13.521582 38.150025 -167.284693 71.844014 14.499692 12.627562 -65.725626 -27.366835 -114.383300 0.673399 -3.422076 -3.022835 2.759353 -44.082273 
-285.450012 85.332527 -560.577087 93.015633 -7.413292 177.182129 166.011026 -12.459701 178.959754 -40.523393 -4.735935 4.049095 81.443135 -5.781981 -12.630010 21.454558 0.003108 0.000017 151.606116 13.950699 -173.822249 -74.841538 1.947298 8.620432 75.096263 -3.123132 10.685565 21.454551 -0.003093 0.000001 9.908503 -0.039796 -0.895987 9.804188 -0.003483 -1.792085 9.486265 -0.014438 -1.792039 1.381462 1.486880 2.959286 -20.933253 -8.207228 6.634800 -155.000297 -68.608205 -27.166422 21.595967 55.975063 24.209365 -110.822319 1.548134 3.164878 -20.230800 -15.247859 36.082602 -167.240802 72.363218 14.543288 14.601689 -64.658279 -32.956827 -115.547212 0.341167 -3.447870 -2.864130 2.408489 -39.193412 
-285.772095 88.367073 -559.526978 91.328659 -5.593481 177.898315 167.040186 -13.529798 -179.804429 -33.188518 -4.513396 2.242279 72.809830 -5.188632 -11.557102 21.454557 0.003108 0.000017 151.455552 14.960604 -173.638025 -70.980917 3.098531 1.971555 73.887552 1.011512 8.197643 21.454543 -0.003094 0.000000 9.811037 0.237771 -0.773885 9.605748 0.538995 -1.525349 9.287754 0.529638 -1.528582 -0.685544 2.736032 2.291921 -19.789657 -8.239881 6.110373 -156.556214 -70.283507 -25.524504 21.317413 56.831788 25.871232 -111.948993 1.774607 3.197888 -18.706399 -16.382709 34.169766 -168.497721 73.084814 13.250419 12.779969 -61.855470 -33.304337 -116.860999 0.263988 -3.497220 -3.200857 -0.023031 -39.501955 
-286.164215 90.589897 -558.484497 89.588948 -4.201264 178.168271 167.042112 -14.869293 -179.643537 -28.462691 -4.928547 0.458433 66.453123 -4.319948 -10.833629 21.454558 0.003108 0.000017 150.909820 16.095795 -173.973347 -67.007455 3.419845 -0.909241 75.500611 3.056509 8.507112 21.454555 -0.003092 0.000000 9.695721 0.435866 -0.572609 9.374440 0.916707 -1.108048 9.056367 0.909864 -1.113570 -2.592291 3.714380 1.497071 -19.028791 -8.175680 5.442556 -159.499520 -71.922828 -22.465206 19.559498 56.894335 26.109518 -112.996587 1.925935 3.232439 -17.765102 -16.550991 32.136310 -170.610667 73.846318 11.082726 10.311265 -58.346071 -32.514467 -118.244290 0.077120 -3.541341 -3.581097 0.111507 -41.306908 
-286.578888 91.903542 -557.546021 88.289962 -3.500565 178.331731 166.240698 -15.583696 -179.979801 -27.375586 -5.536847 -1.743531 64.059176 -2.914345 -10.804579 21.454568 0.003107 0.000017 150.496880 18.051194 -174.853020 -62.776945 3.460011 0.473435 74.613137 2.658037 10.263822 21.454545 -0.003092 -0.000001 9.640962 0.541507 -0.525442 9.264610 1.123357 -1.005886 8.946503 1.117125 -1.012658 -4.252819 4.093421 0.835939 -17.878210 -8.227087 4.822356 -160.860995 -73.355125 -21.046017 16.786906 56.659780 25.115104 -114.275007 2.152380 3.271396 -16.582929 -15.865182 31.222113 -173.793180 75.461194 7.831199 8.274767 -55.459316 -31.585377 -119.506304 -0.074126 -3.582447 -4.343521 0.654065 -43.076559 
-286.983093 92.080803 -556.689880 87.571467 -2.951083 178.515081 165.180967 -16.363298 178.108507 -29.661357 -5.405573 -1.996488 65.386630 -2.970073 -11.781161 21.454563 0.003107 0.000017 150.418032 20.474001 -176.239918 -58.445075 3.443034 2.904656 73.479278 0.919505 9.976290 21.454562 -0.003086 0.000001 9.741403 0.687586 -0.553517 9.464211 1.418151 -1.049009 9.146064 1.411654 -1.057561 -6.069755 3.747353 0.553773 -16.957586 -7.439995 4.153291 -162.835207 -73.927802 -19.014490 13.107318 55.451359 22.855287 -115.351308 2.281840 3.308120 -16.389220 -14.822781 30.906623 -177.761588 75.987610 3.779796 7.062208 -52.118325 -29.943474 -120.985695 -0.197580 -3.633718 -4.085402 0.589798 -44.715087 
-287.314087 91.199966 -555.954712 87.245715 -2.000116 178.502923 164.685396 -17.759202 176.296854 -32.669563 -4.931233 -0.930940 66.749998 -3.975046 -12.719860 21.454557 0.003108 0.000017 150.676855 22.471604 -177.796081 -53.854635 2.801450 5.519827 72.821885 -0.968301 9.732080 21.454555 -0.003088 0.000001 9.924536 0.943205 -0.497960 9.829904 1.925311 -0.914090 9.511647 1.919619 -0.925711 -7.446960 4.250419 0.097032 -16.851584 -7.555127 3.892886 -163.132375 -74.958806 -18.699704 9.328500 55.175948 20.568442 -115.885402 2.272478 3.331286 -16.766936 -13.981279 31.207930 -177.918778 76.390120 3.624824 6.375667 -49.729648 -28.422668 -121.433196 -0.272459 -3.646492 -3.995320 0.401971 -45.363415 
-287.665192 89.187622 -555.209106 86.506450 -1.149898 178.217776 163.427644 -19.440906 175.010347 -35.664864 -4.255070 -0.231470 72.604242 -4.232839 -14.079894 21.454562 0.003108 0.000017 149.648543 24.548909 179.767150 -50.043270 1.954285 7.456377 72.715048 -2.272504 9.921083 21.454553 -0.003090 0.000001 10.015263 1.187102 -0.441528 10.011699 2.407953 -0.778808 9.693335 2.403068 -0.793350 -8.828951 5.034335 -0.138316 -16.908099 -7.506538 3.895904 -163.295603 -75.335716 -18.529207 6.327261 54.572207 18.207304 -116.072303 2.336666 3.334744 -17.079467 -13.786561 31.247487 -178.156182 76.278883 3.380683 6.754342 -47.661999 -27.258120 -121.429111 -0.158719 -3.654183 -3.730016 0.546560 -46.509856 
-287.957703 86.588127 -554.211304 86.070041 -0.785737 177.756288 161.405279 -21.441497 173.389133 -40.189506 -3.307191 1.468868 80.292009 -4.698885 -14.970212 21.454558 0.003107 0.000017 148.466388 26.951904 176.745160 -46.261903 1.033804 8.354487 72.462754 -2.873496 9.929922 21.454557 -0.003086 0.000005 10.245863 1.324621 -0.445902 10.472691 2.684159 -0.770199 10.154258 2.679321 -0.786413 -10.522115 7.008341 -0.275811 -16.773490 -8.446232 4.704697 -164.603092 -75.817791 -17.187999 4.272209 54.053936 15.523191 -116.365195 2.360571 3.345404 -17.473072 -14.469146 31.456009 -177.594795 75.629503 3.945313 6.683131 -46.275775 -25.108610 -120.850403 -0.024336 -3.640250 -2.822290 0.931052 -49.691026 
-288.292511 83.161171 -553.157288 85.912817 0.360957 177.609931 156.341691 -24.778198 175.603699 -49.551486 -3.467334 2.609831 87.467785 -4.864328 -16.751509 21.454553 0.003110 0.000018 147.301130 28.709795 173.201726 -43.094614 0.682013 8.795650 72.538836 -3.297212 9.556514 21.454550 -0.003094 -0.000000 10.617490 1.696981 -0.580569 11.212174 3.442217 -0.994195 10.893510 3.436014 -1.014995 -11.750506 9.058129 -0.127197 -17.760888 -9.720881 6.080885 -165.589194 -75.765239 -16.180430 2.481377 53.590839 12.483509 -115.718800 2.231046 3.327120 -18.248011 -15.682138 31.998531 -177.522873 75.124896 4.012094 5.370336 -45.265853 -21.769148 -118.671723 0.425473 -3.582974 -3.255512 1.527447 -52.624391 
-288.601196 79.481453 -551.934692 86.492072 0.613506 176.414975 152.027375 -27.892807 175.877877 -59.049417 -2.314382 4.429151 90.937460 -5.880888 -18.098190 21.454557 0.003109 0.000018 144.693787 30.813715 167.527793 -41.572223 1.290402 7.778138 73.261955 -2.769650 9.032982 21.454557 -0.003093 0.000001 11.289145 1.731758 -0.631539 12.554818 3.521811 -1.071614 12.236149 3.515138 -1.092895 -12.658147 11.465769 0.268486 -19.999494 -10.544029 7.822519 -165.599084 -76.010197 -16.168805 -0.186612 53.240519 7.962576 -113.197524 1.858597 3.245691 -19.696379 -17.083553 32.712033 -177.227904 74.438632 4.304997 2.178450 -45.101218 -16.728452 -114.971400 0.866485 -3.460200 -4.915014 2.545231 -56.294047 
-288.634186 76.009140 -550.621704 87.010879 -0.267751 173.295478 150.594319 -30.674195 174.446091 -65.857845 -1.397276 5.839557 93.629749 -6.709015 -19.958243 21.454558 0.003108 0.000018 138.994800 32.649896 161.534766 -41.831193 2.768236 6.007252 73.523865 -1.911789 7.775908 21.454551 -0.003091 -0.000000 11.898674 1.425346 -0.444341 13.779815 2.893464 -0.715699 13.461303 2.888954 -0.733183 -12.061473 12.802103 1.164846 -23.682880 -11.364011 9.851616 -169.503821 -75.442486 -12.178203 -2.039577 52.069828 2.766826 -108.861788 1.100851 3.110585 -20.283370 -17.418552 35.284822 -178.446397 73.213897 3.038588 -1.602987 -44.305190 -11.093234 -111.350709 1.434413 -3.346210 -5.160190 2.951859 -59.868780 
-288.471405 72.923363 -548.672974 87.214023 -0.967997 169.784487 151.158507 -33.991502 172.978065 -69.799520 -1.192636 6.822743 96.862116 -7.085370 -22.556321 21.454562 0.003106 0.000018 132.521844 33.056309 160.310851 -43.645083 3.770165 4.612448 73.611196 -0.965941 7.684105 21.454553 -0.003093 -0.000000 12.310910 1.329706 -0.321530 14.607428 2.689351 -0.472461 14.288961 2.686315 -0.488716 -11.896410 11.449149 2.695154 -25.123206 -11.388510 11.194202 -169.980199 -74.389202 -11.689610 -3.980439 51.537390 -1.915006 -102.455406 -0.274108 2.923407 -19.285722 -16.245120 38.497275 179.114908 73.834017 0.547977 -5.145847 -44.321781 -6.279579 -109.129409 1.746249 -3.272375 -5.344367 2.195334 -62.434390 
-288.156799 70.559120 -546.289001 87.272824 -1.634461 167.233890 152.917813 -36.176005 172.386748 -70.861341 -1.172220 6.982308 100.090391 -6.783864 -25.801799 21.454558 0.003106 0.000016 126.755566 33.487198 164.526348 -48.092243 3.767770 2.449216 71.289615 0.509526 6.904657 21.454555 -0.003091 0.000000 12.430483 1.356049 -0.397668 14.844948 2.751905 -0.617944 14.526469 2.747987 -0.634572 -9.833660 11.190592 3.935702 -26.833940 -12.047019 12.724256 -169.085103 -73.639589 -12.606800 -3.956738 52.210919 -4.663225 -95.755564 -1.979993 2.742888 -20.679100 -13.092907 45.130123 175.899815 74.301004 -2.735781 -7.355100 -43.168032 -4.176881 -108.649404 1.780125 -3.253959 -5.533946 2.795427 -62.176216 
-287.594696 69.242828 -542.976501 87.380413 -2.770484 165.589781 156.250030 -36.752903 172.810630 -68.319438 -1.703058 6.131010 101.249310 -6.156007 -29.735481 21.454558 0.003109 0.000017 121.627433 32.816286 168.158602 -55.034796 1.631521 -1.276239 69.432985 1.727674 2.154345 21.454557 -0.003086 0.000006 12.417273 1.401430 -0.448135 14.817392 2.848701 -0.713006 14.498892 2.844208 -0.730221 -9.484200 10.892169 4.507262 -27.335737 -12.887771 13.667911 -171.443117 -72.794913 -10.185005 -1.326369 52.695213 -4.728002 -91.726654 -3.766500 2.687333 -23.974468 -9.828680 53.608973 178.810282 74.870792 0.255774 -9.743478 -41.553484 -3.204447 -109.461807 1.662038 -3.280866 -5.958982 2.853632 -60.636268 
